<?xml version="1.0" encoding="UTF-8" standalone="yes"?>
<svg width="256" height="256" viewBox="0 0 256 256" fill="none" version="1.2" baseProfile="tiny-ps" xmlns="http://www.w3.org/2000/svg">
  <title>Obl.ong</title>
  <desc>A pink oval in a dark grey box</desc>
  <rect width="256" height="256" fill="#343434"/>
  <path d="M235.406 150.125C234.171 155.895 230.259 161.009 223.835 165.27C217.398 169.539 208.576 172.85 197.897 174.985C176.549 179.253 148.259 178.725 118.134 172.278C88.0085 165.831 61.9797 154.734 44.2483 142.102C35.3791 135.784 28.6843 129.152 24.5586 122.622C20.4411 116.106 18.9649 109.838 20.1997 104.068C21.4346 98.2983 25.3466 93.1841 31.7706 88.9234C38.2074 84.6541 47.03 81.3431 57.7083 79.2083C79.0563 74.9405 107.347 75.4681 137.472 81.9152C167.597 88.3623 193.626 99.4597 211.357 112.091C220.227 118.409 226.921 125.041 231.047 131.571C235.165 138.088 236.641 144.355 235.406 150.125Z" fill="#FF206E" stroke="#0C0F0A" stroke-width="4.86364"/>
</svg>
